#!OML:ASF X:\für Bonn\!DataBase\2005_08_10_Bjorn_Final\c3d\bjorn.ASF
:FULLY-SPECIFIED
:DEGREES
339
root 13.3996 19.1138 0.137263 170.635 -92.8425 -170.713
lowerback 10.813 1.79667 1.25668
upperback 12.6905 1.74645 -1.77869
thorax 7.51075 0.750197 -2.69956
lowerneck -0.249118 -3.43028 8.20287
upperneck 7.92445 -4.66227 -3.10854
head 2.31112 -2.19708 -2.52528
rclavicle -3.97569e-015 7.55382e-015
rhumerus -19.7553 12.2997 -76.9981
rradius 37.9813
rwrist -6.77453
rhand -6.58304 8.87126
rfingers 7.12502
rthumb 19.2718 -20.1938
lclavicle -3.97569e-015 7.55382e-015
lhumerus -25.5512 -19.9555 83.1529
lradius 35.1003
lwrist -8.58993
lhand -29.6565 -12.2376
lfingers 7.12502
lthumb -2.98573 17.7213
rfemur -11.128 -6.08021 16.4718
rtibia 33.1602
rfoot -16.0006 15.327
rtoes 3.52193
lfemur -4.13669 2.11097 -12.0748
ltibia 26.436
lfoot -14.0022 14.8063
ltoes -23.0098
340
root 13.336 19.1121 0.117968 171.202 -92.7807 -171.356
lowerback 10.2092 1.66594 1.0611
upperback 12.2261 1.61915 -1.78193
thorax 7.30502 0.686857 -2.5735
lowerneck 0.311228 -3.33204 8.17878
upperneck 8.33844 -4.49625 -3.16899
head 2.35741 -2.11248 -2.53367
rclavicle 3.43897e-014 -3.02153e-014
rhumerus -20.5194 12.3245 -77.2346
rradius 38.4219
rwrist -6.83574
rhand -6.62139 8.79214
rfingers 7.12502
rthumb 19.2349 -20.2766
lclavicle 3.43897e-014 -3.02153e-014
lhumerus -26.2307 -19.8493 83.423
lradius 35.0076
lwrist -8.76883
lhand -29.52 -12.4678
lfingers 7.12502
lthumb -2.85387 17.4929
rfemur -10.7504 -6.24437 16.5345
rtibia 32.9982
rfoot -16.0348 15.6119
rtoes 3.75812
lfemur -3.68312 2.18545 -11.9393
ltibia 26.1477
lfoot -14.0079 14.8002
ltoes -23.0601
341
root 13.2725 19.1117 0.0987692 171.463 -92.7419 -171.674
lowerback 9.57945 1.53169 0.853418
upperback 11.7793 1.48483 -1.79002
thorax 7.13865 0.619698 -2.44665
lowerneck 1.09882 -3.22812 8.15879
upperneck 8.4847 -4.30594 -3.15717
head 2.27631 -2.01832 -2.50584
rclavicle -3.97569e-015 -4.37326e-015
rhumerus -21.2225 12.2811 -77.4615
rradius 38.8312
rwrist -6.89427
rhand -6.62225 8.73207
rfingers 7.12502
rthumb 19.2341 -20.3368
lclavicle -3.97569e-015 -4.37326e-015
lhumerus -26.8756 -19.7323 83.6657
lradius 34.9264
lwrist -8.96813
lhand -29.3639 -12.7251
lfingers 7.12502
lthumb -2.70311 17.2375
rfemur -10.3913 -6.45953 16.5758
rtibia 32.8382
rfoot -16.1088 15.8956
rtoes 3.77173
lfemur -3.25162 2.20591 -11.8281
ltibia 25.8611
lfoot -14.0447 14.8117
ltoes -23.081
342
root 13.2093 19.1122 0.0797189 172.09 -92.6912 -172.313
lowerback 8.89755 1.3999 0.670961
upperback 11.3545 1.35346 -1.80039
thorax 7.03262 0.556548 -2.33734
lowerneck 1.89019 -3.1282 8.15869
upperneck 8.57624 -4.12297 -3.11547
head 2.17693 -1.92768 -2.47173
rclavicle 7.35503e-015 -1.39149e-014
rhumerus -21.8519 12.1955 -77.7012
rradius 39.2584
rwrist -6.98613
rhand -6.61633 8.62757
rfingers 7.12502
rthumb 19.2398 -20.4407
lclavicle 7.35503e-015 -1.39149e-014
lhumerus -27.4303 -19.6472 83.8815
lradius 34.8395
lwrist -9.10817
lhand -29.1843 -12.8923
lfingers 7.12502
lthumb -2.52966 17.0724
rfemur -10.0823 -6.6172 16.6404
rtibia 32.6712
rfoot -16.1469 16.1567
rtoes 4.07262
lfemur -2.87848 2.29051 -11.6971
ltibia 25.5832
lfoot -14.0444 14.7935
ltoes -23.197
343
root 13.1463 19.1124 0.0613757 172.3 -92.6233 -172.524
lowerback 8.20677 1.27103 0.457023
upperback 10.9353 1.22282 -1.7813
thorax 6.9409 0.490164 -2.18106
lowerneck 2.6336 -3.01715 8.0572
upperneck 8.73699 -3.93216 -3.07363
head 2.11163 -1.83584 -2.42353
rclavicle -2.32578e-014 6.75868e-015
rhumerus -22.4628 12.21 -77.8968
rradius 39.7496
rwrist -7.32481
rhand -6.59954 8.41976
rfingers 7.12502
rthumb 19.2559 -20.6469
lclavicle -2.32578e-014 6.75868e-015
lhumerus -27.9709 -19.4798 84.1361
lradius 34.742
lwrist -9.2873
lhand -28.9385 -13.1273
lfingers 7.12502
lthumb -2.29228 16.8401
rfemur -9.79017 -6.78684 16.6761
rtibia 32.5053
rfoot -16.1638 16.4482
rtoes 4.2626
lfemur -2.51041 2.37177 -11.5953
ltibia 25.3003
lfoot -14.0624 14.7965
ltoes -23.1678
344
root 13.0842 19.1135 0.0433023 172.559 -92.5752 -172.748
lowerback 7.4854 1.14018 0.292048
upperback 10.529 1.0921 -1.79873
thorax 6.88818 0.429232 -2.09233
lowerneck 3.21921 -2.91234 8.06048
upperneck 9.03777 -3.76542 -3.05586
head 2.11825 -1.75225 -2.41061
rclavicle 7.95139e-015 -2.66371e-014
rhumerus -23.0183 12.0944 -78.1451
rradius 40.2015
rwrist -7.58754
rhand -6.4813 8.34177
rfingers 7.12502
rthumb 19.3696 -20.7135
lclavicle 7.95139e-015 -2.66371e-014
lhumerus -28.4272 -19.3296 84.3197
lradius 34.6349
lwrist -9.44859
lhand -28.6747 -13.352
lfingers 7.12502
lthumb -2.03752 16.618
rfemur -9.53506 -6.97151 16.7174
rtibia 32.3313
rfoot -16.2091 16.713
rtoes 4.3572
lfemur -2.19258 2.45588 -11.495
ltibia 25.0294
lfoot -14.0707 14.7942
ltoes -23.2396
